# xmcd
#
# Track frame offsets: 
#        150
#        4633
#        23560
#        40361
#        57811
#        78719
#        99513
#        119272
#        135392
#        152981
#        172711
#        191540
#        212332
#
# Disc length: 3062 seconds
#
# Revision: 1
# Processed by: cddbd v1.5.2PL0 Copyright (c) Steve Scherf et al.
# Submitted via: ExactAudioCopy v0.99pb3
#
DISCID=980bf40d
DTITLE=Delpech, Michel - Ce lundi là au Bataclan (live) [CD 1)
DYEAR=2005
DGENRE=Chanson
TTITLE0=Introduction (live)
TTITLE1=Elle ne passera pas un hiver de plus ici (live)
TTITLE2=Le chasseur (live)
TTITLE3=Home sweet home (live)
TTITLE4=Photographe (live)
TTITLE5=Sortie de couples
TTITLE6=Jaloux
TTITLE7=30 manières de quitte une fille (live)
TTITLE8=Loin d'ici (live)
TTITLE9=Fuir au soleil (live)
TTITLE10=Ces mots-là (live)
TTITLE11=La course du voyageur (live)
TTITLE12=Ce lundi là (live)
EXTD=
EXTT0=
EXTT1=
EXTT2=
EXTT3=
EXTT4=
EXTT5=
EXTT6=
EXTT7=
EXTT8=
EXTT9=
EXTT10=
EXTT11=
EXTT12=
PLAYORDER=
